<svg xmlns="http://www.w3.org/2000/svg" xmlns:xlink="http://www.w3.org/1999/xlink" viewBox="0 0 360.47 517"><defs><style>.cls-1{isolation:isolate;}.cls-2{fill:#4c4c4c;}.cls-3{opacity:0.81;fill:url(#radial-gradient);}.cls-4,.cls-6{fill:red;}.cls-4,.cls-5{opacity:0.68;}.cls-7{opacity:0.47;}.cls-8,.cls-9{fill:#fff;mix-blend-mode:lighten;}.cls-8{opacity:0.5;}.cls-9{opacity:0.54;}</style><radialGradient id="radial-gradient" cx="180.7" cy="299.43" r="457.48" gradientTransform="translate(296.81 -205.02) rotate(33.39) scale(1 1.62)" gradientUnits="userSpaceOnUse"><stop offset="0.1" stop-color="#fff" stop-opacity="0.1"/><stop offset="0.25" stop-opacity="0.4"/><stop offset="0.44" stop-color="#fff" stop-opacity="0.1"/></radialGradient></defs><title>FD Logo</title><g class="cls-1"><g id="Layer_2" data-name="Layer 2"><g id="Layer_6" data-name="Layer 6"><path class="cls-2" d="M360.47,260.73C360.47,399.7,240.63,517,76.15,517h0A75.22,75.22,0,0,1,.93,441.78v-2.55H76.15c110.93,0,206.55-93.08,206.55-178.5,0-65.55-45-148.88-105.72-173h85.61a78.52,78.52,0,0,0,30-5.9C334.4,131.79,360.47,198.5,360.47,260.73Z"/><path class="cls-3" d="M360.47,260.73C360.47,399.7,240.63,517,76.15,517h0A75.22,75.22,0,0,1,.93,441.78v-2.55H76.15c110.93,0,206.55-93.08,206.55-178.5,0-65.55-45-148.88-105.72-173h85.61a78.52,78.52,0,0,0,30-5.9C334.4,131.79,360.47,198.5,360.47,260.73Z"/><path class="cls-4" d="M292.57,81.87c-1,.41-2,.81-3.07,1.18,40.69,49.11,65.81,114.1,65.81,175,0,137-118.2,253-280.4,253h0c-40.16,0-72.49-31.95-73.77-66.8L1,444.15c1.4,41.3,34.13,72.49,75,72.85h0c164.47,0,284.32-114.64,284.32-256.5C360.27,198.27,334.4,131.79,292.57,81.87Z"/><path class="cls-2" d="M74.34,0H14.79A14.79,14.79,0,0,0,0,14.79V431H74.34V250.05h54.07a78.84,78.84,0,0,0,78.84-78.84H74.34V78.85h187A78.84,78.84,0,0,0,340.16,0H74.34Z"/><g class="cls-5"><path class="cls-6" d="M124.41,246.05H70.34V427H0v4H74.34V250.05h54.07a78.84,78.84,0,0,0,78.84-78.84h-4.1A78.84,78.84,0,0,1,124.41,246.05Z"/><path class="cls-6" d="M336.06,0a78.85,78.85,0,0,1-78.74,74.85h-187V175.21h4V78.85h187A78.84,78.84,0,0,0,340.16,0Z"/></g><g class="cls-7"><path class="cls-8" d="M265.59,91.77a82.45,82.45,0,0,0,30.15-6c-1.14-1.41-2-2.46-3.17-3.85-9.31,4-20.37,5.9-31,5.9H177c3,1.19,6,2.53,8.9,4Z"/><path class="cls-8" d="M4.93,445.78v-2.55H80.15c110.93,0,206.55-93.08,206.55-178.5,0-48.84-25-107.56-62.83-144.28,35.61,36.89,58.83,93.18,58.83,140.28,0,85.42-95.62,178.5-206.55,178.5H.93v3.86c1.34,19,7.52,29.23,13.27,37.22C9.36,471.55,5.27,457.64,4.93,445.78Z"/></g><g class="cls-7"><path class="cls-9" d="M74.34,175.21H203.15c.07-1.33.1-4,.1-4H74.34Z"/><path class="cls-9" d="M4,18.79A14.79,14.79,0,0,1,18.79,4H78.34l257.39.36c.06-1.32.43-3,.43-4.36H14.79A14.79,14.79,0,0,0,0,14.79V427H4Z"/></g></g></g></g></svg>